<?xml version="1.0" encoding="UTF-8" standalone="no"?>
<svg
   xmlns:dc="http://purl.org/dc/elements/1.1/"
   xmlns:cc="http://creativecommons.org/ns#"
   xmlns:rdf="http://www.w3.org/1999/02/22-rdf-syntax-ns#"
   xmlns:svg="http://www.w3.org/2000/svg"
   xmlns="http://www.w3.org/2000/svg"
   id="svg865"
   version="1.1"
   height="64"
   width="128">
  <metadata
     id="metadata871">
    <rdf:RDF>
      <cc:Work
         rdf:about="">
        <dc:format>image/svg+xml</dc:format>
        <dc:type
           rdf:resource="http://purl.org/dc/dcmitype/StillImage" />
        <dc:title></dc:title>
      </cc:Work>
    </rdf:RDF>
  </metadata>
  <defs
     id="defs869" />
  <path
     id="path857"
     d="m 15.000013,32.877983 c 0,0 0,10 5,10 5,0 5,-20 10,-20 5,0 5,20 10,20 5,0 5,-20 10,-20 5,0 5,20 10,20 5,0 5,-20 10,-20 5,0 5,20 10,20 5,0 5,-20 10,-20 5,0 5,20 9.999997,20 5,0 5,-20 10,-20 5,0 5,10 5,10"
     stroke-width="2"
     stroke="#000000"
     fill="none" />
</svg>
