<?xml version="1.0" encoding="UTF-8" standalone="no"?>
<svg
   xmlns:dc="http://purl.org/dc/elements/1.1/"
   xmlns:cc="http://creativecommons.org/ns#"
   xmlns:rdf="http://www.w3.org/1999/02/22-rdf-syntax-ns#"
   xmlns:svg="http://www.w3.org/2000/svg"
   xmlns="http://www.w3.org/2000/svg"
   xmlns:sodipodi="http://sodipodi.sourceforge.net/DTD/sodipodi-0.dtd"
   xmlns:inkscape="http://www.inkscape.org/namespaces/inkscape"
   inkscape:version="1.0 (4035a4fb49, 2020-05-01)"
   sodipodi:docname="vertex.svg"
   id="svg16"
   version="1.1"
   viewBox="189 84 223 228"
   height="228"
   width="223">
  <metadata
     id="metadata22">
    <rdf:RDF>
      <cc:Work
         rdf:about="">
        <dc:format>image/svg+xml</dc:format>
        <dc:type
           rdf:resource="http://purl.org/dc/dcmitype/StillImage" />
      </cc:Work>
    </rdf:RDF>
  </metadata>
  <defs
     id="defs20" />
  <sodipodi:namedview
     inkscape:current-layer="svg16"
     inkscape:window-maximized="1"
     inkscape:window-y="-11"
     inkscape:window-x="-11"
     inkscape:cy="113.22709"
     inkscape:cx="185.37537"
     inkscape:zoom="1.7280702"
     inkscape:snap-midpoints="true"
     inkscape:snap-smooth-nodes="true"
     showgrid="false"
     id="namedview18"
     inkscape:window-height="974"
     inkscape:window-width="1920"
     inkscape:pageshadow="2"
     inkscape:pageopacity="0"
     guidetolerance="10"
     gridtolerance="10"
     objecttolerance="10"
     borderopacity="1"
     bordercolor="#666666"
     pagecolor="#ffffff" />
  <line
     id="line4"
     stroke-width="2"
     stroke="black"
     fill="none"
     y2="200"
     x2="300"
     y1="200"
     x1="200" />
  <polygon
     id="polygon6"
     points="245,195 255,200 245,205 "
     stroke="none"
     fill="black" />
  <line
     id="line8"
     stroke-width="2"
     stroke="black"
     fill="none"
     y2="300"
     x2="400"
     y1="200"
     x1="300" />
  <polygon
     id="polygon10"
     points="350,242 354,254 342,250 "
     stroke="none"
     fill="black" />
  <path
     id="path12"
     d="M300 200C300 200,307 208,311 204C315 200,300 186,304 182C308 178,321 193,325 189C329 185,314 172,318 168C322 164,335 179,339 175C343 171,328 158,332 154C336 150,349 165,353 161C357 157,342 144,346 140C350 136,363 151,367 147C371 143,356 130,360 126C364 122,377 137,381 133C385 129,370 116,374 112C378 108,391 123,395 119C399 115,384 101,388 97C392 93,400 100,400 100"
     stroke-width="2"
     stroke="black"
     fill="none" />
  <text
     inkscape:transform-center-x="2.0459435"
     id="text14"
     style="font-size:64px;font-family:Arial;text-align:end;text-anchor:end"
     y="265.32806"
     x="316.07709"><tspan
       id="tspan851"
       style="font-size:64px;text-align:end;text-anchor:end">α</tspan></text>
  <circle
     r="17.39052"
     cy="200"
     cx="300"
     id="path847"
     style="fill:#000000;fill-opacity:1;stroke:none;stroke-width:18.0851;stroke-linecap:round" />
</svg>
